# File created by Blade
# Date/Time:  Tue Apr 07 20:22:14 2015
# Frame Rate: 120.000 fps
#------------------------------------------------------
:FULLY-SPECIFIED
:DEGREES
1939
root 2.533010 32.786742 -9.057143 17.601958 2.932624 -1.259603
Spine -14.323995 -2.309451 -4.428548
Head 17.891396 -6.866809 1.472712
LeftShoulder -20.275916 46.767076 4.309157
LeftArm 49.219746 5.510697 -84.338488
LeftForeArm 0.859886 -0.000000 28.998903
LeftHand 7.676414 -0.000000 4.935612
LeftHandThumb1 -26.253704 0.000000 33.147579
RightShoulder -6.904061 -10.744248 -18.226427
RightArm 9.861559 -6.623804 90.208249
RightForeArm 8.423269 -0.000000 20.783513
RightHand 6.966735 0.000000 4.961405
RightHandThumb1 -24.326973 -0.000000 -32.862282
LeftUpLeg -13.759203 -1.624777 -0.001816
LeftLeg -2.352447 -0.000000 0.000000
LeftFoot -5.340342 4.271347 -17.639998
LeftToeBase -3.905522 -0.000000 0.000000
RightUpLeg -12.850655 -3.860047 0.175728
RightLeg -0.577892 -0.000000 0.000000
RightFoot -9.213328 -5.537621 8.208251
RightToeBase 1.190747 -0.000000 -0.000000
1940
root 2.513914 32.769395 -9.038197 17.498871 2.740840 -1.147342
Spine -14.383154 -2.217550 -4.413651
Head 17.925524 -6.599991 1.243633
LeftShoulder -20.430594 46.865643 4.083285
LeftArm 49.152371 5.409994 -84.369615
LeftForeArm 0.847476 -0.000000 28.852080
LeftHand 7.774227 -0.000000 5.062683
LeftHandThumb1 -26.253704 0.000000 33.147579
RightShoulder -6.897167 -10.732386 -18.123168
RightArm 10.099410 -6.772194 90.191842
RightForeArm 8.606047 0.000000 20.410750
RightHand 6.951975 -0.000000 5.241960
RightHandThumb1 -24.326973 -0.000000 -32.862282
LeftUpLeg -13.435766 -1.920772 -0.037406
LeftLeg -2.677859 -0.000000 0.000000
LeftFoot -5.501067 4.783227 -17.592434
LeftToeBase -3.768899 -0.000000 0.000000
RightUpLeg -12.657012 -3.687264 0.016531
RightLeg -0.691818 -0.000000 0.000000
RightFoot -9.444473 -6.010162 8.522106
RightToeBase 0.693085 -0.000000 -0.000000
1941
root 2.488804 32.753052 -9.018100 17.376617 2.628049 -1.083383
Spine -14.407627 -2.164656 -4.336606
Head 17.930360 -6.355892 1.034292
LeftShoulder -20.521247 46.907572 3.906079
LeftArm 48.994535 5.365729 -84.293243
LeftForeArm 0.779390 -0.000000 28.822135
LeftHand 7.710115 -0.000000 5.328798
LeftHandThumb1 -26.253704 0.000000 33.147579
RightShoulder -6.926803 -10.723321 -17.980622
RightArm 10.322450 -6.973285 90.135208
RightForeArm 8.776436 -0.000000 20.088244
RightHand 6.920857 -0.000000 5.316512
RightHandThumb1 -24.326973 -0.000000 -32.862282
LeftUpLeg -13.197127 -2.009313 -0.056487
LeftLeg -2.798365 -0.000000 0.000000
LeftFoot -5.693476 4.988751 -17.543215
LeftToeBase -3.741817 -0.000000 0.000000
RightUpLeg -12.383737 -3.493284 -0.091376
RightLeg -0.922743 -0.000000 0.000000
RightFoot -9.602848 -6.476594 8.843271
RightToeBase -0.057461 -0.000000 0.000000
1942
root 2.468540 32.739129 -8.998100 17.258778 2.528257 -0.988717
Spine -14.431884 -2.173314 -4.266087
Head 17.937415 -6.106474 0.819984
LeftShoulder -20.667336 46.983521 3.674782
LeftArm 48.928100 5.281278 -84.285738
LeftForeArm 0.699582 -0.000000 28.628504
LeftHand 7.809239 -0.000000 5.554988
LeftHandThumb1 -26.253704 0.000000 33.147579
RightShoulder -6.946342 -10.706617 -17.817451
RightArm 10.564958 -7.172066 90.055518
RightForeArm 8.905242 0.000000 19.754633
RightHand 6.938048 -0.000000 5.363895
RightHandThumb1 -24.326973 -0.000000 -32.862282
LeftUpLeg -12.962511 -2.209171 -0.078515
LeftLeg -2.924873 -0.000000 0.000000
LeftFoot -5.857641 5.243870 -17.538061
LeftToeBase -3.736249 -0.000000 0.000000
RightUpLeg -12.163172 -3.425714 -0.196879
RightLeg -1.035652 -0.000000 0.000000
RightFoot -9.786928 -6.661144 9.046410
RightToeBase -0.822169 -0.000000 0.000000
1943
root 2.445173 32.728272 -8.978831 17.144318 2.440194 -0.918407
Spine -14.452802 -2.175314 -4.180944
Head 17.928055 -5.873291 0.643890
LeftShoulder -20.765124 47.062295 3.510415
LeftArm 48.908364 5.115424 -84.439221
LeftForeArm 0.883068 -0.000000 28.303507
LeftHand 7.907700 -0.000000 5.509859
LeftHandThumb1 -26.253704 0.000000 33.147579
RightShoulder -6.990737 -10.688250 -17.618283
RightArm 10.812936 -7.349756 89.968567
RightForeArm 8.964119 -0.000000 19.395920
RightHand 6.924214 -0.000000 5.421275
RightHandThumb1 -24.326973 -0.000000 -32.862282
LeftUpLeg -12.780946 -2.309079 -0.087722
LeftLeg -2.960999 -0.000000 0.000000
LeftFoot -6.001067 5.362813 -17.549889
LeftToeBase -3.767455 -0.000000 0.000000
RightUpLeg -11.957507 -3.371851 -0.261799
RightLeg -1.114855 -0.000000 0.000000
RightFoot -9.943091 -6.734072 9.109641
RightToeBase -1.669353 -0.000000 0.000000
